<svg xmlns="http://www.w3.org/2000/svg" width="236" height="236" viewBox="0 0 128 128" fill="none"><defs><linearGradient id="devg1" x1="10" y1="10" x2="118" y2="118" gradientUnits="userSpaceOnUse"><stop offset="0" stop-color="#7ff0de"/><stop offset="0.5" stop-color="#1bb8a4"/><stop offset="1" stop-color="#0c7a6c"/></linearGradient><filter id="devs2" x="-12" y="-12" width="152" height="152" filterUnits="userSpaceOnUse"><feDropShadow dx="0" dy="2.8" stdDeviation="3.2" flood-color="#053833" flood-opacity="0.42"/></filter><clipPath id="devc3"><path d="M88.75 21.13A49.5 49.5 0 1 0 101.92 95.82L106.52 99.67L106.8 77.91L90.43 86.18L95.02 90.03A40.5 40.5 0 1 1 84.25 28.93Z" fill="#000"/></clipPath><linearGradient id="devg4" x1="30" y1="26" x2="98" y2="102" gradientUnits="userSpaceOnUse"><stop offset="0" stop-color="#7f95ff"/><stop offset="0.5" stop-color="#3b4fd6"/><stop offset="1" stop-color="#222c8e"/></linearGradient><filter id="devs5" x="-12" y="-12" width="152" height="152" filterUnits="userSpaceOnUse"><feDropShadow dx="0" dy="2.8" stdDeviation="3.2" flood-color="#0a1f5c" flood-opacity="0.42"/></filter><radialGradient id="devr6" cx="50" cy="40" r="40" gradientUnits="userSpaceOnUse"><stop offset="0" stop-color="#ffffff" stop-opacity="0.4"/><stop offset="1" stop-color="#ffffff" stop-opacity="0"/></radialGradient><mask id="devk7" maskUnits="userSpaceOnUse" x="0" y="0" width="128" height="128"><circle cx="64" cy="64" r="34" fill="#ffffff"/></mask><clipPath id="devc8"><circle cx="64" cy="64" r="34" fill="#000"/></clipPath><radialGradient id="devr9" cx="64" cy="64" r="27" gradientUnits="userSpaceOnUse"><stop offset="0" stop-color="#ffffff" stop-opacity="1"/><stop offset="0.85" stop-color="#f1f3fa" stop-opacity="1"/><stop offset="1" stop-color="#d3d8e8" stop-opacity="1"/></radialGradient></defs><g filter="url(#devs2)"><g transform="translate(0 3)"><path d="M88.75 21.13A49.5 49.5 0 1 0 101.92 95.82L106.52 99.67L106.8 77.91L90.43 86.18L95.02 90.03A40.5 40.5 0 1 1 84.25 28.93Z" fill="#07574d"/></g><path d="M88.75 21.13A49.5 49.5 0 1 0 101.92 95.82L106.52 99.67L106.8 77.91L90.43 86.18L95.02 90.03A40.5 40.5 0 1 1 84.25 28.93Z" fill="url(#devg1)"/></g><g clip-path="url(#devc3)"><path d="M88.75 21.13A49.5 49.5 0 1 0 101.92 95.82L106.52 99.67L106.8 77.91L90.43 86.18L95.02 90.03A40.5 40.5 0 1 1 84.25 28.93Z" fill="none" stroke="#ffffff" stroke-opacity="0.34" stroke-width="3.2"/></g><g filter="url(#devs5)"><g transform="translate(0 4)"><circle cx="64" cy="64" r="34" fill="#161c5e"/></g><circle cx="64" cy="64" r="34" fill="url(#devg4)"/></g><g mask="url(#devk7)"><rect width="128" height="128" fill="url(#devr6)"/></g><g clip-path="url(#devc8)"><circle cx="64" cy="64" r="34" fill="none" stroke="#ffffff" stroke-opacity="0.34" stroke-width="3.2"/></g><circle cx="64" cy="64" r="27" fill="#161c5e" opacity="0.45"/><circle cx="64" cy="64" r="26" fill="url(#devr9)"/><path d="M86 64L82 64" stroke="#2f3b6c" stroke-width="2.4" stroke-linecap="round"/><path d="M83.05 75L81.32 74" stroke="#2f3b6c" stroke-width="1.4" stroke-linecap="round"/><path d="M75 83.05L74 81.32" stroke="#2f3b6c" stroke-width="1.4" stroke-linecap="round"/><path d="M64 86L64 82" stroke="#2f3b6c" stroke-width="2.4" stroke-linecap="round"/><path d="M53 83.05L54 81.32" stroke="#2f3b6c" stroke-width="1.4" stroke-linecap="round"/><path d="M44.95 75L46.68 74" stroke="#2f3b6c" stroke-width="1.4" stroke-linecap="round"/><path d="M42 64L46 64" stroke="#2f3b6c" stroke-width="2.4" stroke-linecap="round"/><path d="M44.95 53L46.68 54" stroke="#2f3b6c" stroke-width="1.4" stroke-linecap="round"/><path d="M53 44.95L54 46.68" stroke="#2f3b6c" stroke-width="1.4" stroke-linecap="round"/><path d="M64 42L64 46" stroke="#2f3b6c" stroke-width="2.4" stroke-linecap="round"/><path d="M75 44.95L74 46.68" stroke="#2f3b6c" stroke-width="1.4" stroke-linecap="round"/><path d="M83.05 53L81.32 54" stroke="#2f3b6c" stroke-width="1.4" stroke-linecap="round"/><path d="M64 64V48M64 64L53 70" stroke="#1f2548" stroke-width="4" stroke-linecap="round"/><circle cx="64" cy="64" r="3.2" fill="#1bb8a4"/></svg>
